# xmcd
#
# Track frame offsets:
#	150
#	27780
#	45450
#	65542
#	81682
#	100837
#	118122
#	135420
#	155092
#	176995
#	191077
#
# Disc length: 2745 seconds
#
# Revision: 4
# Processed by: cddbd v1.5.2PL0 Copyright (c) Steve Scherf et al.
# Submitted via: EasyCDDAExtractor 11.1.0.1
#
DISCID=9b0ab70b
DTITLE=Wynonna - Collection
DYEAR=1997
DGENRE=Country
TTITLE0=Heaven Help My Heart
TTITLE1=I Saw The Light
TTITLE2=She Is His Only Need
TTITLE3=Only Love
TTITLE4=No One Else On Earth [Club Mix]
TTITLE5=Is It Over Yet [Single Version]
TTITLE6=Tell Me Why
TTITLE7=My Strongest Weakness
TTITLE8=To Be Loved By You
TTITLE9=Rock Bottom [Single Version]
TTITLE10=Girls With Guitars
EXTD=YEAR: 1997
EXTT0=
EXTT1=
EXTT2=
EXTT3=
EXTT4=
EXTT5=
EXTT6=
EXTT7=
EXTT8=
EXTT9=
EXTT10=
PLAYORDER=
